{
  "accessors": [
    {
      "bufferView": 2,
      "componentType": 5126,
      "count": 65532,
      "max": [
        17.71432876586914,
        17.182897567749023,
        17.71432876586914
      ],
      "min": [
        -17.71432876586914,
        -17.182897567749023,
        -17.71432876586914
      ],
      "type": "VEC3"
    },
    {
      "bufferView": 2,
      "byteOffset": 786384,
      "componentType": 5126,
      "count": 65532,
      "max": [
        0.999836266040802,
        0.9976649284362793,
        0.9998363256454468
      ],
      "min": [
        -0.9998363256454468,
        -0.9976648688316345,
        -0.999836266040802
      ],
      "type": "VEC3"
    },
    {
      "bufferView": 1,
      "componentType": 5126,
      "count": 65532,
      "max": [
        0.8299759030342102,
        0.9139226675033569
      ],
      "min": [
        0.000637565681245178,
        0.000637565681245178
      ],
      "type": "VEC2"
    },
    {
      "bufferView": 1,
      "byteOffset": 524256,
      "componentType": 5126,
      "count": 65532,
      "max": [
        0.8299759030342102,
        0.9139226675033569
      ],
      "min": [
        0.000637565681245178,
        0.000637565681245178
      ],
      "type": "VEC2"
    },
    {
      "bufferView": 1,
      "byteOffset": 1048512,
      "componentType": 5126,
      "count": 65532,
      "max": [
        0.8299759030342102,
        0.9139226675033569
      ],
      "min": [
        0.000637565681245178,
        0.000637565681245178
      ],
      "type": "VEC2"
    },
    {
      "bufferView": 0,
      "componentType": 5125,
      "count": 366090,
      "type": "SCALAR"
    },
    {
      "bufferView": 2,
      "byteOffset": 1572768,
      "componentType": 5126,
      "count": 65532,
      "max": [
        17.444536209106445,
        16.075883865356445,
        15.391934394836426
      ],
      "min": [
        -15.391934394836426,
        -16.075883865356445,
        -16.133310317993164
      ],
      "type": "VEC3"
    },
    {
      "bufferView": 2,
      "byteOffset": 2359152,
      "componentType": 5126,
      "count": 65532,
      "max": [
        0.9981710910797119,
        0.9941031336784363,
        0.9962424039840698
      ],
      "min": [
        -0.9981711506843567,
        -0.9941030144691467,
        -0.998171329498291
      ],
      "type": "VEC3"
    },
    {
      "bufferView": 1,
      "byteOffset": 1572768,
      "componentType": 5126,
      "count": 65532,
      "max": [
        0.9429004192352295,
        0.9786943197250366
      ],
      "min": [
        0.010544105432927608,
        0.0006375657394528389
      ],
      "type": "VEC2"
    },
    {
      "bufferView": 1,
      "byteOffset": 2097024,
      "componentType": 5126,
      "count": 65532,
      "max": [
        0.9429004192352295,
        0.9786943197250366
      ],
      "min": [
        0.010544105432927608,
        0.0006375657394528389
      ],
      "type": "VEC2"
    },
    {
      "bufferView": 1,
      "byteOffset": 2621280,
      "componentType": 5126,
      "count": 65532,
      "max": [
        0.9429004192352295,
        0.9786943197250366
      ],
      "min": [
        0.010544105432927608,
        0.0006375657394528389
      ],
      "type": "VEC2"
    },
    {
      "bufferView": 0,
      "byteOffset": 1464360,
      "componentType": 5125,
      "count": 372522,
      "type": "SCALAR"
    },
    {
      "bufferView": 2,
      "byteOffset": 3145536,
      "componentType": 5126,
      "count": 65532,
      "max": [
        17.77558135986328,
        17.182897567749023,
        15.416568756103516
      ],
      "min": [
        -17.77558135986328,
        -17.182897567749023,
        -17.77558135986328
      ],
      "type": "VEC3"
    },
    {
      "bufferView": 2,
      "byteOffset": 3931920,
      "componentType": 5126,
      "count": 65532,
      "max": [
        0.9986928105354309,
        0.9976648092269897,
        0.9981711506843567
      ],
      "min": [
        -0.9986927509307861,
        -0.9976648688316345,
        -0.9986929297447205
      ],
      "type": "VEC3"
    },
    {
      "bufferView": 1,
      "byteOffset": 3145536,
      "componentType": 5126,
      "count": 65532,
      "max": [
        0.999362587928772,
        0.9686043858528137
      ],
      "min": [
        0.000637565681245178,
        0.000637565681245178
      ],
      "type": "VEC2"
    },
    {
      "bufferView": 1,
      "byteOffset": 3669792,
      "componentType": 5126,
      "count": 65532,
      "max": [
        0.999362587928772,
        0.9686043858528137
      ],
      "min": [
        0.000637565681245178,
        0.000637565681245178
      ],
      "type": "VEC2"
    },
    {
      "bufferView": 1,
      "byteOffset": 4194048,
      "componentType": 5126,
      "count": 65532,
      "max": [
        0.999362587928772,
        0.9686043858528137
      ],
      "min": [
        0.000637565681245178,
        0.000637565681245178
      ],
      "type": "VEC2"
    },
    {
      "bufferView": 0,
      "byteOffset": 2954448,
      "componentType": 5125,
      "count": 378396,
      "type": "SCALAR"
    },
    {
      "bufferView": 2,
      "byteOffset": 4718304,
      "componentType": 5126,
      "count": 41035,
      "max": [
        15.416566848754883,
        17.182897567749023,
        17.77558135986328
      ],
      "min": [
        -15.416566848754883,
        -17.182897567749023,
        -11.552736282348633
      ],
      "type": "VEC3"
    },
    {
      "bufferView": 2,
      "byteOffset": 5210724,
      "componentType": 5126,
      "count": 41035,
      "max": [
        0.9981706142425537,
        0.9976649284362793,
        0.9986923933029175
      ],
      "min": [
        -0.9957155585289001,
        -0.9976648688316345,
        -0.9962424039840698
      ],
      "type": "VEC3"
    },
    {
      "bufferView": 1,
      "byteOffset": 4718304,
      "componentType": 5126,
      "count": 41035,
      "max": [
        0.9429004192352295,
        0.881334662437439
      ],
      "min": [
        0.09526650607585907,
        0.000637565681245178
      ],
      "type": "VEC2"
    },
    {
      "bufferView": 1,
      "byteOffset": 5046584,
      "componentType": 5126,
      "count": 41035,
      "max": [
        0.9429004192352295,
        0.881334662437439
      ],
      "min": [
        0.09526650607585907,
        0.000637565681245178
      ],
      "type": "VEC2"
    },
    {
      "bufferView": 1,
      "byteOffset": 5374864,
      "componentType": 5126,
      "count": 41035,
      "max": [
        0.9429004192352295,
        0.881334662437439
      ],
      "min": [
        0.09526650607585907,
        0.000637565681245178
      ],
      "type": "VEC2"
    },
    {
      "bufferView": 0,
      "byteOffset": 4468032,
      "componentType": 5125,
      "count": 234672,
      "type": "SCALAR"
    },
    {
      "bufferView": 3,
      "componentType": 5126,
      "count": 250,
      "max": [
        10.416666984558105
      ],
      "min": [
        0.0416666679084301
      ],
      "type": "SCALAR"
    },
    {
      "bufferView": 5,
      "componentType": 5126,
      "count": 250,
      "max": [
        0.37243375182151794,
        0.2777906358242035,
        0.6501950025558472,
        0.9280588030815125
      ],
      "min": [
        -0.9280588030815125,
        -0.2777906656265259,
        -0.6501949429512024,
        0.3724336624145508
      ],
      "type": "VEC4"
    },
    {
      "bufferView": 3,
      "byteOffset": 1000,
      "componentType": 5126,
      "count": 3,
      "max": [
        10.416666984558105
      ],
      "min": [
        0.0416666679084301
      ],
      "type": "SCALAR"
    },
    {
      "bufferView": 4,
      "componentType": 5126,
      "count": 3,
      "max": [
        0.2045416533946991,
        0.2045416533946991,
        0.2045416533946991
      ],
      "min": [
        0.2045416533946991,
        0.2045416384935379,
        0.2045416384935379
      ],
      "type": "VEC3"
    },
    {
      "bufferView": 3,
      "byteOffset": 1012,
      "componentType": 5126,
      "count": 251,
      "max": [
        10.458333015441895
      ],
      "min": [
        0.0416666679084301
      ],
      "type": "SCALAR"
    },
    {
      "bufferView": 5,
      "byteOffset": 4000,
      "componentType": 5126,
      "count": 251,
      "max": [
        0.37243375182151794,
        0.27779069542884827,
        0.6501950025558472,
        0.9280588030815125
      ],
      "min": [
        -0.9280588030815125,
        -0.27779069542884827,
        -0.6501949429512024,
        0.37243375182151794
      ],
      "type": "VEC4"
    }
  ],
  "animations": [
    {
      "channels": [
        {
          "sampler": 0,
          "target": {
            "node": 3,
            "path": "rotation"
          }
        },
        {
          "sampler": 1,
          "target": {
            "node": 3,
            "path": "scale"
          }
        }
      ],
      "name": "Action",
      "samplers": [
        {
          "input": 24,
          "interpolation": "LINEAR",
          "output": 25
        },
        {
          "input": 26,
          "interpolation": "LINEAR",
          "output": 27
        }
      ]
    },
    {
      "channels": [
        {
          "sampler": 0,
          "target": {
            "node": 3,
            "path": "rotation"
          }
        }
      ],
      "name": "CubeAction",
      "samplers": [
        {
          "input": 28,
          "interpolation": "LINEAR",
          "output": 29
        }
      ]
    }
  ],
  "asset": {
    "extras": {
      "author": "smice (https://sketchfab.com/smice)",
      "license": "CC-BY-4.0 (http://creativecommons.org/licenses/by/4.0/)",
      "source": "https://sketchfab.com/3d-models/abstract-twisted-ball-909112bdfdcb406c832529e0e0d1dda6",
      "title": "Abstract Twisted Ball"
    },
    "generator": "Sketchfab-15.22.0",
    "version": "2.0"
  },
  "bufferViews": [
    {
      "buffer": 0,
      "byteLength": 5406720,
      "name": "floatBufferViews",
      "target": 34963
    },
    {
      "buffer": 0,
      "byteLength": 5703144,
      "byteOffset": 5406720,
      "byteStride": 8,
      "name": "floatBufferViews",
      "target": 34962
    },
    {
      "buffer": 0,
      "byteLength": 5703144,
      "byteOffset": 11109864,
      "byteStride": 12,
      "name": "floatBufferViews",
      "target": 34962
    },
    {
      "buffer": 0,
      "byteLength": 2016,
      "byteOffset": 16813008,
      "name": "floatBufferViews"
    },
    {
      "buffer": 0,
      "byteLength": 36,
      "byteOffset": 16815024,
      "byteStride": 12,
      "name": "floatBufferViews"
    },
    {
      "buffer": 0,
      "byteLength": 8016,
      "byteOffset": 16815060,
      "byteStride": 16,
      "name": "floatBufferViews"
    }
  ],
  "buffers": [
    {
      "byteLength": 16823076,
      "uri": "scene.bin"
    }
  ],
  "extensionsUsed": [
    "KHR_materials_emissive_strength"
  ],
  "images": [
    {
      "uri": "textures/Material.005_metallicRoughness.png"
    },
    {
      "uri": "textures/Material.005_emissive.png"
    }
  ],
  "materials": [
    {
      "doubleSided": true,
      "emissiveFactor": [
        1.0,
        1.0,
        1.0
      ],
      "emissiveTexture": {
        "index": 1,
        "texCoord": 1
      },
      "extensions": {
        "KHR_materials_emissive_strength": {
          "emissiveStrength": 7.212925562608193
        }
      },
      "name": "Material.005",
      "pbrMetallicRoughness": {
        "baseColorFactor": [
          0.015255697543662579,
          0.24353784308730728,
          0.4009926210705955,
          1.0
        ],
        "metallicFactor": 0.509091,
        "metallicRoughnessTexture": {
          "index": 0
        },
        "roughnessFactor": 0.2491737921628285
      }
    }
  ],
  "meshes": [
    {
      "name": "Object_0",
      "primitives": [
        {
          "attributes": {
            "NORMAL": 1,
            "POSITION": 0,
            "TEXCOORD_0": 2,
            "TEXCOORD_1": 3,
            "TEXCOORD_2": 4
          },
          "indices": 5,
          "material": 0,
          "mode": 4
        }
      ]
    },
    {
      "name": "Object_1",
      "primitives": [
        {
          "attributes": {
            "NORMAL": 7,
            "POSITION": 6,
            "TEXCOORD_0": 8,
            "TEXCOORD_1": 9,
            "TEXCOORD_2": 10
          },
          "indices": 11,
          "material": 0,
          "mode": 4
        }
      ]
    },
    {
      "name": "Object_2",
      "primitives": [
        {
          "attributes": {
            "NORMAL": 13,
            "POSITION": 12,
            "TEXCOORD_0": 14,
            "TEXCOORD_1": 15,
            "TEXCOORD_2": 16
          },
          "indices": 17,
          "material": 0,
          "mode": 4
        }
      ]
    },
    {
      "name": "Object_3",
      "primitives": [
        {
          "attributes": {
            "NORMAL": 19,
            "POSITION": 18,
            "TEXCOORD_0": 20,
            "TEXCOORD_1": 21,
            "TEXCOORD_2": 22
          },
          "indices": 23,
          "material": 0,
          "mode": 4
        }
      ]
    }
  ],
  "nodes": [
    {
      "children": [
        1
      ],
      "matrix": [
        1.0,
        0.0,
        0.0,
        0.0,
        0.0,
        2.220446049250313e-16,
        -1.0,
        0.0,
        0.0,
        1.0,
        2.220446049250313e-16,
        0.0,
        0.0,
        0.0,
        0.0,
        1.0
      ],
      "name": "Sketchfab_model"
    },
    {
      "children": [
        2
      ],
      "name": "root"
    },
    {
      "children": [
        3
      ],
      "matrix": [
        1.0,
        0.0,
        0.0,
        0.0,
        0.0,
        2.220446049250313e-16,
        1.0,
        0.0,
        0.0,
        -1.0,
        2.220446049250313e-16,
        0.0,
        0.0,
        0.0,
        0.0,
        1.0
      ],
      "name": "GLTF_SceneRootNode"
    },
    {
      "children": [
        4,
        5,
        6,
        7
      ],
      "name": "Cube_0",
      "rotation": [
        0.37243369221687317,
        0.0,
        0.0,
        0.9280588030815125
      ],
      "scale": [
        0.2045416533946991,
        0.2045416384935379,
        0.2045416384935379
      ],
      "translation": [
        0.0,
        6.291173458099365,
        0.0
      ]
    },
    {
      "mesh": 0,
      "name": "Object_4"
    },
    {
      "mesh": 1,
      "name": "Object_5"
    },
    {
      "mesh": 2,
      "name": "Object_6"
    },
    {
      "mesh": 3,
      "name": "Object_7"
    }
  ],
  "samplers": [
    {
      "magFilter": 9729,
      "minFilter": 9987,
      "wrapS": 10497,
      "wrapT": 10497
    }
  ],
  "scene": 0,
  "scenes": [
    {
      "name": "Sketchfab_Scene",
      "nodes": [
        0
      ]
    }
  ],
  "textures": [
    {
      "sampler": 0,
      "source": 0
    },
    {
      "sampler": 0,
      "source": 1
    }
  ]
}
