<?xml version="1.0" standalone="no"?>
<!DOCTYPE svg PUBLIC "-//W3C//DTD SVG 20010904//EN"
 "http://www.w3.org/TR/2001/REC-SVG-20010904/DTD/svg10.dtd">
<svg version="1.0" xmlns="http://www.w3.org/2000/svg"
 width="180.000000pt" height="180.000000pt" viewBox="0 0 180.000000 180.000000"
 preserveAspectRatio="xMidYMid meet">

    <g transform="translate(0.000000,180.000000) scale(0.100000,-0.100000)"
    fill="#BC002D" stroke="none">
        <path d="M720 1785 c-343 -77 -594 -313 -692 -652 -30 -104 -32 -351 -4 -453
        89 -323 331 -565 651 -652 115 -31 336 -31 450 1 312 85 561 334 646 646 32
        114 32 335 1 450 -86 315 -322 556 -637 646 -94 28 -322 35 -415 14z m326
        -702 l159 -406 3 401 2 402 65 0 65 0 0 -575 0 -575 -69 0 -69 0 -57 148 c-32
        81 -64 164 -73 185 l-14 37 -231 -2 -231 -3 -52 -133 -52 -132 149 0 149 0 0
        -50 0 -50 -192 1 c-106 0 -211 4 -233 7 l-41 7 226 572 225 573 56 0 56 0 159
        -407z"/>
        <path d="M815 1292 c-3 -20 -42 -132 -86 -248 -43 -116 -79 -214 -79 -218 0
        -3 81 -6 180 -6 99 0 180 3 180 6 0 4 -35 102 -79 218 -43 116 -82 226 -85
        243 -11 47 -23 49 -31 5z"/>
    </g>
    <g transform="translate(0.000000,180.000000) scale(0.100000,-0.100000)"
    fill="#FFFFFF" stroke="none">
        <path d="M550 917 l-226 -572 41 -7 c22 -3 127 -7 233 -7 l192 -1 0 50 0 50
        -149 0 -149 0 52 132 52 133 231 3 231 2 14 -37 c9 -21 41 -104 73 -185 l57
        -148 69 0 69 0 0 575 0 575 -65 0 -65 0 -2 -402 -3 -401 -159 406 -159 407
        -56 0 -56 0 -225 -573z m296 370 c3 -17 42 -127 85 -243 44 -116 79 -214 79
        -218 0 -3 -81 -6 -180 -6 -99 0 -180 3 -180 6 0 4 36 102 79 218 44 116 83
        228 86 248 8 44 20 42 31 -5z"/>
    </g>
    
</svg>
